<svg xmlns="http://www.w3.org/2000/svg" xmlns:xlink="http://www.w3.org/1999/xlink" width="1600" height="1559" viewBox="0 0 1600 1559" role="img" aria-labelledby="title description">
  <title id="title">ASCEND: Plain Tee. Plot Twist. — complete Jester advertisement</title>
  <desc id="description">The complete ASCEND Jester advertisement: a full-bleed expressive illustration of a joyful character wearing a blank white shirt, followed by an optional tiny-promise form and yellow ASCEND product section.</desc>
  <defs>
    <pattern id="dry-brush" width="29" height="25" patternUnits="userSpaceOnUse" patternTransform="rotate(-14)">
      <path d="M0 4h19M8 12h21M1 21h14" stroke="#17191d" stroke-width="2" opacity=".23" />
    </pattern>
    <pattern id="flecks" width="36" height="33" patternUnits="userSpaceOnUse">
      <circle cx="7" cy="9" r="3" fill="#17191d" opacity=".46" />
      <path d="m24 23 7-5" stroke="#17191d" stroke-width="2" opacity=".45" />
    </pattern>
  </defs>

  <rect width="1600" height="1559" fill="#f4efdf" />
  <rect width="1600" height="74" fill="#fffdf7" />
  <path d="M0 73h1600" stroke="#17191d" stroke-width="2" />
  <path d="M80 20 111 18l2 28-29 2Z" fill="#e94d56" stroke="#17191d" stroke-width="2" />
  <text x="96" y="40" text-anchor="middle" fill="#fffdf7" font-family="Fredoka, Trebuchet MS, sans-serif" font-size="15" font-weight="700">A</text>
  <text x="118" y="41" fill="#17191d" font-family="DM Sans, Arial, sans-serif" font-size="19" font-weight="800" letter-spacing=".76">ASCEND</text>
  <text x="1520" y="42" text-anchor="end" fill="#17191d" font-family="DM Sans, Arial, sans-serif" font-size="10" font-weight="800" letter-spacing="1">TODAY'S DRESS CODE: YOURSELF</text>

  <svg x="0" y="74" width="1600" height="826" viewBox="0 0 1600 826" preserveAspectRatio="xMidYMid meet" aria-label="Expressive painted character wearing a blank white ASCEND shirt">
    <rect width="1600" height="826" fill="#f4efdf" />

    <path d="M748 689q103-139 207-91t205-20q121-42 243 83l-21 165H744Z" fill="#365fd2" />
    <path d="M751 685q103-139 207-91t205-20q121-42 243 83l-21 165H744Z" fill="url(#dry-brush)" />
    <path d="M913 151q148-95 282-27t180 8l-40 104q-140-37-203 38t-226 20q-82-44 7-143Z" fill="#e94d56" />
    <path d="M931 158q145-85 256-24t161 4" fill="none" stroke="#17191d" stroke-width="8" stroke-linecap="round" stroke-dasharray="20 18" opacity=".8" />
    <path d="M1302 243q97 41 81 116t79 100q70 31 38 103-31 62-104 5t-120-16q-68 36-113-16t34-102q78-43 46-115t59-75Z" fill="#f3ce48" />
    <path d="M1312 259q84 42 69 100t71 98" fill="none" stroke="#17191d" stroke-width="7" stroke-linecap="round" stroke-dasharray="5 15" />

    <path d="M779 260q76-68 151 1t144-15" fill="none" stroke="#add45d" stroke-width="27" stroke-linecap="round" />
    <path d="M800 276q73-53 141 7t124-12" fill="none" stroke="#17191d" stroke-width="5" stroke-linecap="round" opacity=".7" />
    <path d="m1446 407 28-37 27 37-27 38Z" fill="#e94d56" stroke="#17191d" stroke-width="5" />
    <path d="M1472 493h46m-23-23v46" stroke="#17191d" stroke-width="7" stroke-linecap="round" />
    <circle cx="874" cy="503" r="13" fill="#f3ce48" stroke="#17191d" stroke-width="4" />
    <circle cx="1475" cy="642" r="17" fill="#add45d" stroke="#17191d" stroke-width="4" />
    <path d="m852 383 20-26m23 42 34-14m-11-49 7-35m497 227 30 18m-55 14-20 30" fill="none" stroke="#365fd2" stroke-width="10" stroke-linecap="round" />

    <g stroke="#17191d" stroke-linejoin="round" stroke-linecap="round">
      <path d="M1099 237q-31-42-8-75 17 45 46 34 37-64 67-17 24-19 53 26-21-5-41 12 36 21 34 60-59-35-151-9Z" fill="#17191d" stroke-width="8" />
      <path d="M1075 193q-17-41 8-67m29 43q-2-41 28-55m34 59q20-32 48-20" fill="none" stroke="#e94d56" stroke-width="13" />
      <ellipse cx="1150" cy="244" rx="87" ry="93" fill="#efb38b" stroke-width="8" />
      <path d="M1119 241q9-9 18 1m40-1q9-9 18 1" fill="none" stroke-width="7" />
      <path d="M1123 278q28 34 61 0" fill="none" stroke-width="8" />
      <circle cx="1132" cy="264" r="5" fill="#e94d56" stroke="none" />
      <circle cx="1190" cy="264" r="5" fill="#e94d56" stroke="none" />

      <path d="M1075 327 987 356l-49 86 85 48 44-56-5 208h192l-5-208 44 56 85-48-49-86-88-29q-16 80-93 81-77-1-93-81Z" fill="#fffdf7" stroke-width="10" />
      <path d="M1075 327q16 80 93 81 77-1 93-81M1067 434v208m202-208v208" fill="none" stroke-width="5" />

      <path d="M976 381q-59-53-98-89-30-26-59-6-18 13-2 34l86 117 92 32Z" fill="#efb38b" stroke-width="9" />
      <path d="M1374 382q48-69 84-105 27-28 58-9 20 13 4 36l-75 126-83 29Z" fill="#efb38b" stroke-width="9" />
      <path d="m810 281-17-25m-10 50-31-5m719 54 28-21m-4 42 29 6" fill="none" stroke-width="7" />
    </g>

    <path d="M983 672q84 23 163 4t174 3" fill="none" stroke="#e94d56" stroke-width="16" stroke-linecap="round" />
    <path d="m987 696 70 10m48-6 88 3m34-8 44 5" fill="none" stroke="#17191d" stroke-width="4" stroke-linecap="round" opacity=".65" />
    <text x="1372" y="700" fill="#17191d" font-family="Trebuchet MS, Arial, sans-serif" font-size="32" font-weight="800" transform="rotate(-9 1372 700)">WHEE!</text>
  </svg>

  <g transform="translate(96 173)">
    <rect x="0" y="-3" width="165" height="33" fill="#1c1b20" transform="rotate(-2 82 13)" />
    <rect x="0" y="-3" width="165" height="33" fill="#f3ce48" stroke="#1c1b20" stroke-width="2" transform="rotate(-2 82 13)" />
    <text x="10" y="18" fill="#1c1b20" font-family="DM Sans, Arial, sans-serif" font-size="10" font-weight="800" letter-spacing=".9">A LITTLE LESS ORDINARY</text>
    <text x="0" y="128" fill="#1c1b20" font-family="Fredoka, Trebuchet MS, sans-serif" font-size="112" font-weight="700">PLAIN TEE.</text>
    <text x="0" y="222" fill="#e94d56" font-family="Fredoka, Trebuchet MS, sans-serif" font-size="112" font-weight="700">PLOT TWIST.</text>
    <g fill="#17191d" font-family="DM Sans, Arial, sans-serif" font-size="15" font-weight="600">
      <text x="0" y="252">ASCEND's premium plain white shirt is ready for good puns,</text>
      <text x="0" y="276">questionable dance moves, and plans that acquire a plot.</text>
      <text x="0" y="300">Blank canvas. No notes.</text>
    </g>
    <rect x="5" y="348" width="239" height="52" fill="#365fd2" />
    <rect x="0" y="343" width="239" height="52" fill="#17191d" stroke="#17191d" stroke-width="2" />
    <text x="17" y="375" fill="#fffdf7" font-family="DM Sans, Arial, sans-serif" font-size="12" font-weight="800">CHOOSE TODAY'S TINY JOY</text>
    <text x="217" y="375" text-anchor="middle" fill="#fffdf7" font-family="Fredoka, Trebuchet MS, sans-serif" font-size="25" font-weight="600">&#8594;</text>
  </g>

  <text x="1521" y="803" text-anchor="end" fill="#17191d" font-family="Fredoka, Trebuchet MS, sans-serif" font-size="19" font-weight="600" transform="rotate(-4 1521 803)">More you. Less “what do I wear?”</text>

  <rect y="900" width="1600" height="479" fill="#365fd2" />
  <rect y="900" width="1600" height="3" fill="#17191d" />
  <text x="128" y="991" fill="#fffdf7" font-family="DM Sans, Arial, sans-serif" font-size="11" font-weight="800" letter-spacing="1">A TINY PROMISE TO YOURSELF</text>
  <g fill="#fffdf7" font-family="Fredoka, Trebuchet MS, sans-serif" font-size="66" font-weight="600">
    <text x="128" y="1053">Pick one bit.</text>
    <text x="128" y="1115">Make today</text>
    <text x="128" y="1178">yours.</text>
  </g>
  <g fill="#fffdf7" font-family="DM Sans, Arial, sans-serif" font-size="14" font-weight="500">
    <text x="128" y="1221">A small, specific choice can be a nice nudge</text>
    <text x="128" y="1243">toward the day you want. Keep it light, change it</text>
    <text x="128" y="1265">whenever, and don't worry—we're not keeping</text>
    <text x="128" y="1287">score.</text>
  </g>

  <text x="732" y="998" fill="#fffdf7" font-family="Fredoka, Trebuchet MS, sans-serif" font-size="23" font-weight="600">Today, I'll...</text>

  <g font-family="DM Sans, Arial, sans-serif" font-size="13" font-weight="700">
    <rect x="732" y="1016" width="740" height="54" fill="#fffdf7" stroke="#17191d" stroke-width="2" />
    <circle cx="758" cy="1043" r="9" fill="#fffdf7" stroke="#17191d" stroke-width="2" />
    <text x="777" y="1048" fill="#17191d">Tell one spectacularly bad pun.</text>

    <rect x="732" y="1078" width="740" height="54" fill="#fffdf7" stroke="#17191d" stroke-width="2" />
    <circle cx="758" cy="1105" r="9" fill="#fffdf7" stroke="#17191d" stroke-width="2" />
    <text x="777" y="1110" fill="#17191d">Make one boring thing a tiny adventure.</text>

    <rect x="732" y="1140" width="740" height="54" fill="#fffdf7" stroke="#17191d" stroke-width="2" />
    <circle cx="758" cy="1167" r="9" fill="#fffdf7" stroke="#17191d" stroke-width="2" />
    <text x="777" y="1172" fill="#17191d">Wear what feels like me, not “the occasion.”</text>
  </g>

  <rect x="732" y="1208" width="162" height="46" fill="#9f6595" stroke="#17191d" stroke-width="2" />
  <text x="813" y="1236" text-anchor="middle" fill="#fffdf7" font-family="DM Sans, Arial, sans-serif" font-size="11" font-weight="800">Make it my tiny promise</text>
  <rect x="904" y="1208" width="120" height="46" fill="none" stroke="#17191d" stroke-width="2" />
  <text x="964" y="1236" text-anchor="middle" fill="#17191d" font-family="DM Sans, Arial, sans-serif" font-size="11" font-weight="800">Clear my choice</text>

  <text x="732" y="1284" fill="#fffdf7" font-family="DM Sans, Arial, sans-serif" font-size="11" font-weight="600">Not in a pledge mood?</text>
  <text x="864" y="1284" fill="#fffdf7" font-family="DM Sans, Arial, sans-serif" font-size="11" font-weight="800" text-decoration="underline">Skip it and meet the plain tee.</text>
  <text x="732" y="1310" fill="#fffdf7" opacity=".9" font-family="DM Sans, Arial, sans-serif" font-size="10">Your choice stays on this page only. Edit or clear it anytime; nothing is saved or sent.</text>

  <rect y="1379" width="1600" height="180" fill="#f3ce48" />
  <rect y="1379" width="1600" height="3" fill="#17191d" />
  <text x="128" y="1450" fill="#17191d" font-family="Fredoka, Trebuchet MS, sans-serif" font-size="28" font-weight="600">ASCEND: your blank-canvas pal.</text>
  <text x="128" y="1482" fill="#17191d" font-family="DM Sans, Arial, sans-serif" font-size="13">A premium plain white shirt, ready for your style and whatever little adventure shows up next.</text>

  <rect x="1308" y="1449" width="169" height="52" fill="#365fd2" />
  <rect x="1303" y="1444" width="169" height="52" fill="#17191d" stroke="#17191d" stroke-width="2" />
  <text x="1317" y="1475" fill="#fffdf7" font-family="DM Sans, Arial, sans-serif" font-size="12" font-weight="800">BACK TO THE BIT</text>
  <text x="1452" y="1475" text-anchor="middle" fill="#fffdf7" font-family="Fredoka, Trebuchet MS, sans-serif" font-size="25" font-weight="600">&#8593;</text>
</svg>